<?xml version="1.0" encoding="UTF-8"?>
<svg xmlns="http://www.w3.org/2000/svg" width="960" height="420" viewBox="0 0 960 420" role="img" aria-labelledby="title desc">
  <title id="title">projectx-xo terminal profile</title><desc id="desc">Tj builds bots, automations, APIs, developer tools, web apps, integrations, and game systems.</desc>
  <rect width="960" height="420" rx="14" fill="#0d1117"/><rect x="1" y="1" width="958" height="418" rx="13" fill="none" stroke="#30363d"/>
  <g font-family="ui-monospace, SFMono-Regular, Menlo, Consolas, monospace" font-size="15"><g fill="#8b949e"><text x="30" y="48">┌─────────────────────────┐</text><text x="30" y="68">│  ◒  PROJECTX-XO         │</text><text x="30" y="88">│  ◌  BUILD / CONNECT     │</text><text x="30" y="108">│  ◓  SHIP / IMPROVE      │</text><text x="30" y="128">└─────────────────────────┘</text><text x="31" y="170">  [ bot ]──┐</text><text x="31" y="194">  [ api ]──┼──► automate</text><text x="31" y="218">  [ tool]──┘</text><text x="31" y="268">system online</text><text x="31" y="290">scope: broad</text><text x="31" y="312">mode : build</text></g><text x="330" y="49" fill="#c9d1d9">tj@projectx-xo</text><text x="466" y="49" fill="#8b949e"> ─────────────────────────────</text><g fill="#79c0ff"><text x="330" y="84">Builds</text><text x="330" y="108">Backend</text><text x="330" y="132">Web</text><text x="330" y="156">Automate</text><text x="330" y="180">Ship</text></g><g fill="#8b949e"><text x="397" y="84">...........</text><text x="397" y="108">...........</text><text x="397" y="132">...........</text><text x="397" y="156">...........</text><text x="397" y="180">...........</text></g><g fill="#c9d1d9"><text x="500" y="84">bots · automations · APIs · developer tools</text><text x="500" y="108">Node.js · Bun · .NET · PostgreSQL · RabbitMQ</text><text x="500" y="132">React · Next.js · Tailwind CSS</text><text x="500" y="156">Playwright · Puppeteer · CLI tooling</text><text x="500" y="180">Docker · GitHub Actions · Linux</text></g><text x="330" y="224" fill="#c9d1d9">── operating log ─────────────────────────────────</text><g fill="#79c0ff"><text x="330" y="258">01</text><text x="330" y="292">02</text><text x="330" y="326">03</text></g><g fill="#c9d1d9"><text x="368" y="258">community bots, workflow automation, and data collection</text><text x="368" y="292">browser/audio tools, integrations, and control panels</text><text x="368" y="326">CLI, desktop, file, image, and media utilities</text></g><g fill="#8b949e"><text x="368" y="275">systems that connect services and cut out repetitive work</text><text x="368" y="309">cached APIs, web UIs, home/device experiments, game systems</text><text x="368" y="343">small tools that make the next task easier</text></g><text x="330" y="384" fill="#8b949e">public work index ↓</text><text x="530" y="384" fill="#56d364">build → connect → automate → improve</text></g>
</svg>
